<svg id="Laag_1" data-name="Laag 1" xmlns="http://www.w3.org/2000/svg" viewBox="0 0 687.14 394.37"><defs><style>.cls-1{fill:none;stroke:#c9443e;stroke-width:7.89px;}.cls-1,.cls-2{stroke-miterlimit:10;}.cls-2{fill:#060606;stroke:#060606;stroke-width:0.75px;}.cls-3{fill:#c9443e;}</style></defs><title>1718-BaP-PD2-logo-DeMuynck-Stephanie</title><path class="cls-1" d="M410.14,308" transform="translate(-75.88 -79.33)"/><path class="cls-1" d="M398.19,122.6a246.36,246.36,0,0,1,20.92,81.83,18.05,18.05,0,0,1-6.23,15.14c-8.28,7-18.31,9.39-24.9,10.22a19.41,19.41,0,0,1-12.33-2.56,141.21,141.21,0,0,1-49.12-49.1,27.1,27.1,0,0,1-1.23-25.25,193.83,193.83,0,0,1,18.32-31.17c3.7-6,14-21.71,30.4-27.87,43.15-15.54,78.79-9.34,78.79-9.34,10,1.37,18.95,5.41,25.72,9.37a76.91,76.91,0,0,1,17.79,14.73C503,116,515.15,124.83,553,117.87A12.27,12.27,0,0,1,567.06,127c15.49,61.72-66.46,79.62-66.46,79.62-57.35,12.28-76.52,80.54-76.52,80.54-92.06-6.9-144.42-80.54-144.42-80.54-5.75,5.17-9.78,20.13-9.78,20.13C313.78,304.19,410.14,308,410.14,308" transform="translate(-75.88 -79.33)"/><path class="cls-1" d="M541.41,119.61C548,135,554.22,140.6,569,137.2" transform="translate(-75.88 -79.33)"/><ellipse class="cls-1" cx="405.79" cy="328.8" rx="21.24" ry="14.56" transform="translate(-67.81 587.98) rotate(-79.42)"/><path class="cls-2" d="M76.25,396.26A21.54,21.54,0,0,1,77.7,388a15.77,15.77,0,0,1,4-5.81,16.55,16.55,0,0,1,6-3.44,23.61,23.61,0,0,1,7.4-1.12,15.33,15.33,0,0,1,2.82.26,11.17,11.17,0,0,1,2.24.61V366.77a21.83,21.83,0,0,1,2.31-.47,20.68,20.68,0,0,1,3.26-.25,17.67,17.67,0,0,1,2.86.21,4.9,4.9,0,0,1,2.12.87,3.84,3.84,0,0,1,1.3,1.77,8,8,0,0,1,.44,2.93v34.26a6.17,6.17,0,0,1-3.18,5.42,22.27,22.27,0,0,1-5.42,2.42A25.47,25.47,0,0,1,96.2,415a25.1,25.1,0,0,1-8.42-1.31,17,17,0,0,1-6.29-3.75,16.15,16.15,0,0,1-3.9-5.89A21.31,21.31,0,0,1,76.25,396.26Zm20.53-9a7.78,7.78,0,0,0-6,2.25q-2.1,2.23-2.1,6.79T90.63,403a7,7,0,0,0,5.64,2.27,6.47,6.47,0,0,0,2.35-.4,5.25,5.25,0,0,0,1.63-.9v-15.9A6.62,6.62,0,0,0,96.78,387.22Z" transform="translate(-75.88 -79.33)"/><path class="cls-2" d="M138.7,415a25.57,25.57,0,0,1-7.92-1.19,18.07,18.07,0,0,1-6.36-3.58,16.57,16.57,0,0,1-4.26-6,21.22,21.22,0,0,1-1.55-8.46,19.7,19.7,0,0,1,1.55-8.2,16.21,16.21,0,0,1,4.08-5.64,16.43,16.43,0,0,1,5.78-3.25,21.55,21.55,0,0,1,6.65-1.05,20.12,20.12,0,0,1,7,1.16,16.83,16.83,0,0,1,5.42,3.18,14.07,14.07,0,0,1,3.54,4.84,14.74,14.74,0,0,1,1.26,6.15,4.91,4.91,0,0,1-1.37,3.75,6.85,6.85,0,0,1-3.83,1.66L130.82,401a6,6,0,0,0,3.26,3.57,12.63,12.63,0,0,0,5.63,1.2,20,20,0,0,0,5.6-.76,17.76,17.76,0,0,0,4.3-1.77,6.1,6.1,0,0,1,1.95,2,5.22,5.22,0,0,1,.8,2.75,5.16,5.16,0,0,1-3,4.84,16.12,16.12,0,0,1-5.2,1.67A37.88,37.88,0,0,1,138.7,415Zm-2-28.41a7.21,7.21,0,0,0-3,.58,6,6,0,0,0-2.06,1.49,6.19,6.19,0,0,0-1.2,2,8.65,8.65,0,0,0-.47,2.28l12.36-2a5.4,5.4,0,0,0-1.59-2.89A5.3,5.3,0,0,0,136.67,386.57Z" transform="translate(-75.88 -79.33)"/><path class="cls-2" d="M191.39,377.61a25,25,0,0,1,7.48,1.05,19.67,19.67,0,0,1,5.67,2.71,9,9,0,0,1,2.28,2.24,5.6,5.6,0,0,1,.83,3.18v25.3a14.11,14.11,0,0,1-1.45,6.61,13.24,13.24,0,0,1-3.93,4.63,16.9,16.9,0,0,1-5.86,2.71,29.09,29.09,0,0,1-7.19.86q-6.58,0-10.34-1.77a6.34,6.34,0,0,1-3.07-8.67,5.9,5.9,0,0,1,1.55-1.91,25.08,25.08,0,0,0,4.74,1.95,18.83,18.83,0,0,0,5.46.79,12.63,12.63,0,0,0,6.21-1.3,4.44,4.44,0,0,0,2.32-4.19v-1.16a17.93,17.93,0,0,1-7.23,1.31,19.42,19.42,0,0,1-6.18-1,13.88,13.88,0,0,1-5.13-3,14.68,14.68,0,0,1-3.54-5.31,20.1,20.1,0,0,1-1.34-7.73,19.2,19.2,0,0,1,1.41-7.67,14.57,14.57,0,0,1,3.9-5.38,16.39,16.39,0,0,1,5.92-3.18A25.54,25.54,0,0,1,191.39,377.61Zm4.48,10.48a8,8,0,0,0-1.48-.58,8.76,8.76,0,0,0-2.42-.29,6.77,6.77,0,0,0-5.32,2,8.33,8.33,0,0,0-1.77,5.68c0,2.79.6,4.8,1.77,6a6,6,0,0,0,4.52,1.84,7.34,7.34,0,0,0,4.7-1.37Z" transform="translate(-75.88 -79.33)"/><path class="cls-2" d="M233.81,415a25.57,25.57,0,0,1-7.92-1.19,18,18,0,0,1-6.35-3.58,16.59,16.59,0,0,1-4.27-6,21.4,21.4,0,0,1-1.55-8.46,19.86,19.86,0,0,1,1.55-8.2,15.83,15.83,0,0,1,9.87-8.89,21.5,21.5,0,0,1,6.65-1.05,20.1,20.1,0,0,1,7,1.16,16.72,16.72,0,0,1,5.42,3.18,14.07,14.07,0,0,1,3.54,4.84,14.75,14.75,0,0,1,1.27,6.15,5,5,0,0,1-1.37,3.75,6.88,6.88,0,0,1-3.83,1.66L225.94,401a6,6,0,0,0,3.25,3.57,12.63,12.63,0,0,0,5.63,1.2,20,20,0,0,0,5.6-.76,17.59,17.59,0,0,0,4.3-1.77,6,6,0,0,1,1.95,2,5.22,5.22,0,0,1,.8,2.75,5.15,5.15,0,0,1-3,4.84,16,16,0,0,1-5.2,1.67A37.77,37.77,0,0,1,233.81,415Zm-2-28.41a7.23,7.23,0,0,0-3,.58,6,6,0,0,0-3.25,3.51,7.92,7.92,0,0,0-.47,2.28l12.35-2a5.4,5.4,0,0,0-1.59-2.89A5.28,5.28,0,0,0,231.79,386.57Z" transform="translate(-75.88 -79.33)"/><path class="cls-2" d="M289.61,413.75a17.42,17.42,0,0,1-2.28.43,22.51,22.51,0,0,1-3.22.22,16.34,16.34,0,0,1-2.85-.22,5,5,0,0,1-2.14-.86,4.28,4.28,0,0,1-1.33-1.77,7.77,7.77,0,0,1-.47-2.93V392.57c0-2-.5-3.36-1.48-4.15a5.61,5.61,0,0,0-3.65-1.2,10.68,10.68,0,0,0-2.75.36,8.32,8.32,0,0,0-2.09.87v25.3a16.76,16.76,0,0,1-2.28.43,22.47,22.47,0,0,1-3.21.22,16.38,16.38,0,0,1-2.86-.22,4.81,4.81,0,0,1-2.13-.86,4.22,4.22,0,0,1-1.34-1.77,7.58,7.58,0,0,1-.47-2.93V366.7l2.35-.4a19.28,19.28,0,0,1,3.14-.25,17.67,17.67,0,0,1,2.86.21,5,5,0,0,1,2.13.87,4.3,4.3,0,0,1,1.34,1.77,7.77,7.77,0,0,1,.47,2.93v7.08a27.26,27.26,0,0,1,2.85-.83,17.9,17.9,0,0,1,4.23-.47q7.15,0,11.16,3.58t4,10.66Z" transform="translate(-75.88 -79.33)"/><path class="cls-2" d="M333.55,396.26a21.69,21.69,0,0,1-1.38,8,16.07,16.07,0,0,1-3.86,5.88,16.45,16.45,0,0,1-6,3.62,23,23,0,0,1-7.73,1.23,21.58,21.58,0,0,1-7.73-1.31,16.76,16.76,0,0,1-6-3.71,16.47,16.47,0,0,1-3.87-5.9,22.72,22.72,0,0,1,0-15.54,16.38,16.38,0,0,1,3.87-5.88,16.8,16.8,0,0,1,6-3.73,21.8,21.8,0,0,1,7.73-1.3,21.32,21.32,0,0,1,7.73,1.34,17.63,17.63,0,0,1,6,3.76,16.49,16.49,0,0,1,3.86,5.88A20.61,20.61,0,0,1,333.55,396.26Zm-25.3,0q0,4.41,1.7,6.76a5.51,5.51,0,0,0,4.73,2.34,5.28,5.28,0,0,0,4.66-2.38,11.79,11.79,0,0,0,1.63-6.72,11.54,11.54,0,0,0-1.66-6.69,5.88,5.88,0,0,0-9.4,0A11.46,11.46,0,0,0,308.25,396.26Z" transform="translate(-75.88 -79.33)"/><path class="cls-2" d="M375.9,396.26a21.9,21.9,0,0,1-1.37,8,16.09,16.09,0,0,1-3.87,5.88,16.33,16.33,0,0,1-6,3.62A23,23,0,0,1,357,415a21.62,21.62,0,0,1-7.73-1.31,16.94,16.94,0,0,1-6-3.71,16.73,16.73,0,0,1-3.87-5.9,22.72,22.72,0,0,1,0-15.54,16.65,16.65,0,0,1,3.87-5.88,17,17,0,0,1,6-3.73,21.84,21.84,0,0,1,7.73-1.3A21.38,21.38,0,0,1,364.7,379a17.49,17.49,0,0,1,6,3.76,16.52,16.52,0,0,1,3.87,5.88A20.81,20.81,0,0,1,375.9,396.26Zm-25.3,0q0,4.41,1.7,6.76a5.53,5.53,0,0,0,4.74,2.34A5.3,5.3,0,0,0,361.7,403a11.79,11.79,0,0,0,1.63-6.72,11.46,11.46,0,0,0-1.67-6.69,5.87,5.87,0,0,0-9.39,0A11.46,11.46,0,0,0,350.6,396.26Z" transform="translate(-75.88 -79.33)"/><path class="cls-2" d="M394.19,413.75a16.76,16.76,0,0,1-2.28.43,22.41,22.41,0,0,1-3.22.22,16.42,16.42,0,0,1-2.85-.22,4.81,4.81,0,0,1-2.13-.86,4.22,4.22,0,0,1-1.34-1.77,7.58,7.58,0,0,1-.47-2.93V386.94a6.32,6.32,0,0,1,.61-2.86,6.7,6.7,0,0,1,1.77-2.13,12.87,12.87,0,0,1,2.86-1.7,29.45,29.45,0,0,1,3.65-1.34,32.28,32.28,0,0,1,4-.9,26.79,26.79,0,0,1,4.19-.33,9.84,9.84,0,0,1,5.49,1.34,4.86,4.86,0,0,1,2,4.38,7,7,0,0,1-.29,2,9.49,9.49,0,0,1-.73,1.77c-1,0-2,.05-3.1.15s-2.1.24-3.11.43-2,.4-2.86.61a11.76,11.76,0,0,0-2.27.77Z" transform="translate(-75.88 -79.33)"/><path class="cls-2" d="M413.05,413.82a7.54,7.54,0,0,1-1.84-2.39,6.77,6.77,0,0,1-.69-3.1,6.36,6.36,0,0,1,.69-2.85,13.22,13.22,0,0,1,1.69-2.65l12.44-14.59H412a11.59,11.59,0,0,1-.83-2,8.45,8.45,0,0,1-.4-2.67,5,5,0,0,1,1.12-3.65,4,4,0,0,1,3-1.12H437.7a7.77,7.77,0,0,1,1.84,2.38,7,7,0,0,1,.68,3.11,6.59,6.59,0,0,1-.68,2.86,13.58,13.58,0,0,1-1.7,2.63l-12.14,14.6h14.17a12.87,12.87,0,0,1,.82,2,8.49,8.49,0,0,1,.4,2.67A5,5,0,0,1,440,412.7a4.05,4.05,0,0,1-3,1.12Z" transform="translate(-75.88 -79.33)"/><path class="cls-2" d="M461,377.61a29.72,29.72,0,0,1,7.12.8,15.85,15.85,0,0,1,5.49,2.42,10.93,10.93,0,0,1,3.51,4.12,13.29,13.29,0,0,1,1.22,5.89V407a4.53,4.53,0,0,1-1,3.07,10.74,10.74,0,0,1-2.5,2.06Q470.15,415,461.62,415a30.37,30.37,0,0,1-6.91-.72,16.61,16.61,0,0,1-5.27-2.17,10,10,0,0,1-3.4-3.69,10.93,10.93,0,0,1-1.19-5.2q0-5,3-7.66c2-1.79,5-2.89,9.18-3.33l9.47-1v-.51a3.09,3.09,0,0,0-1.84-3,12.62,12.62,0,0,0-5.32-.9,24.36,24.36,0,0,0-5.35.58,28.51,28.51,0,0,0-4.69,1.44,5,5,0,0,1-1.6-2A6.4,6.4,0,0,1,447,384a4.66,4.66,0,0,1,.9-3,7.05,7.05,0,0,1,2.78-1.91,21.73,21.73,0,0,1,4.95-1.16A43.27,43.27,0,0,1,461,377.61Zm.58,28.41a16.23,16.23,0,0,0,2.71-.26,6.9,6.9,0,0,0,2.2-.68v-5.79l-5.2.44a8.12,8.12,0,0,0-3.33.86,2.34,2.34,0,0,0-1.3,2.17,2.89,2.89,0,0,0,1.12,2.35A6.09,6.09,0,0,0,461.62,406Z" transform="translate(-75.88 -79.33)"/><path class="cls-2" d="M502.74,377.61a20.83,20.83,0,0,1,5.82.83,14.43,14.43,0,0,1,4.95,2.5,21.3,21.3,0,0,1,4.88-2.39,20.22,20.22,0,0,1,6.54-.94,19.89,19.89,0,0,1,5.38.73,13.78,13.78,0,0,1,4.7,2.27,11.08,11.08,0,0,1,3.29,4.12,14.36,14.36,0,0,1,1.23,6.25v22.77a16.87,16.87,0,0,1-2.27.43,22.71,22.71,0,0,1-3.22.22,16.46,16.46,0,0,1-2.86-.22,4.86,4.86,0,0,1-2.13-.86,4.3,4.3,0,0,1-1.34-1.77,7.77,7.77,0,0,1-.47-2.93V391.34A3.8,3.8,0,0,0,526,388.2a5.24,5.24,0,0,0-3.33-1,5.87,5.87,0,0,0-2.17.47,6.49,6.49,0,0,0-1.73,1,2.76,2.76,0,0,1,.07.54v24.54a20.23,20.23,0,0,1-2.35.43,21.83,21.83,0,0,1-3.15.22,16.34,16.34,0,0,1-2.85-.22,4.86,4.86,0,0,1-2.13-.86,4.22,4.22,0,0,1-1.34-1.77,7.77,7.77,0,0,1-.47-2.93V391.34a3.63,3.63,0,0,0-1.33-3.14,5.35,5.35,0,0,0-3.22-1,5.82,5.82,0,0,0-2.24.4,17.38,17.38,0,0,0-1.59.76v25.37a16.76,16.76,0,0,1-2.28.43,22.37,22.37,0,0,1-3.21.22,16.46,16.46,0,0,1-2.86-.22,4.81,4.81,0,0,1-2.13-.86,4.22,4.22,0,0,1-1.34-1.77,7.58,7.58,0,0,1-.47-2.93V386.79a5.26,5.26,0,0,1,.83-3.11,9.35,9.35,0,0,1,2.28-2.17,20.86,20.86,0,0,1,6.11-2.81A26.34,26.34,0,0,1,502.74,377.61Z" transform="translate(-75.88 -79.33)"/><path class="cls-2" d="M565.62,415a25.46,25.46,0,0,1-7.91-1.19,18,18,0,0,1-6.36-3.58,16.59,16.59,0,0,1-4.27-6,21.4,21.4,0,0,1-1.55-8.46,19.86,19.86,0,0,1,1.55-8.2,15.89,15.89,0,0,1,9.87-8.89,21.5,21.5,0,0,1,6.65-1.05,20.16,20.16,0,0,1,7,1.16A16.78,16.78,0,0,1,576,382a14.07,14.07,0,0,1,3.54,4.84,14.75,14.75,0,0,1,1.27,6.15,5,5,0,0,1-1.37,3.75,6.88,6.88,0,0,1-3.83,1.66L557.75,401A6,6,0,0,0,561,404.6a12.63,12.63,0,0,0,5.63,1.2,19.94,19.94,0,0,0,5.6-.76,17.59,17.59,0,0,0,4.3-1.77,6.12,6.12,0,0,1,2,2,5.21,5.21,0,0,1,.79,2.75,5.15,5.15,0,0,1-3,4.84,16.06,16.06,0,0,1-5.19,1.67A38,38,0,0,1,565.62,415Zm-2-28.41a7.23,7.23,0,0,0-3,.58,6,6,0,0,0-3.25,3.51,7.92,7.92,0,0,0-.47,2.28l12.35-2a5.44,5.44,0,0,0-1.58-2.89A5.32,5.32,0,0,0,563.6,386.57Z" transform="translate(-75.88 -79.33)"/><path class="cls-2" d="M635.87,413.75a16.87,16.87,0,0,1-2.27.43,22.51,22.51,0,0,1-3.22.22,16.34,16.34,0,0,1-2.85-.22,4.9,4.9,0,0,1-2.14-.86,4.28,4.28,0,0,1-1.33-1.77,7.77,7.77,0,0,1-.47-2.93V392.57c0-2-.5-3.36-1.49-4.15a5.58,5.58,0,0,0-3.64-1.2,10.68,10.68,0,0,0-2.75.36,8.32,8.32,0,0,0-2.09.87v25.3a16.76,16.76,0,0,1-2.28.43,22.51,22.51,0,0,1-3.22.22,16.34,16.34,0,0,1-2.85-.22,4.77,4.77,0,0,1-2.13-.86,4.14,4.14,0,0,1-1.34-1.77,7.58,7.58,0,0,1-.47-2.93V366.7l2.35-.4a19.28,19.28,0,0,1,3.14-.25,17.67,17.67,0,0,1,2.86.21,5,5,0,0,1,2.13.87,4.3,4.3,0,0,1,1.34,1.77,7.77,7.77,0,0,1,.47,2.93v7.08a26.53,26.53,0,0,1,2.85-.83,17.9,17.9,0,0,1,4.23-.47q7.15,0,11.16,3.58t4,10.66Z" transform="translate(-75.88 -79.33)"/><path class="cls-2" d="M679.82,396.26a21.69,21.69,0,0,1-1.38,8,16.07,16.07,0,0,1-3.86,5.88,16.45,16.45,0,0,1-6,3.62,23,23,0,0,1-7.73,1.23,21.58,21.58,0,0,1-7.73-1.31,16.35,16.35,0,0,1-9.84-9.61,22.72,22.72,0,0,1,0-15.54,16.65,16.65,0,0,1,3.87-5.88,16.94,16.94,0,0,1,6-3.73,21.8,21.8,0,0,1,7.73-1.3,21.36,21.36,0,0,1,7.73,1.34,17.63,17.63,0,0,1,6,3.76,16.49,16.49,0,0,1,3.86,5.88A20.61,20.61,0,0,1,679.82,396.26Zm-25.3,0c0,2.94.56,5.19,1.7,6.76a5.51,5.51,0,0,0,4.73,2.34,5.28,5.28,0,0,0,4.66-2.38,11.79,11.79,0,0,0,1.63-6.72,11.54,11.54,0,0,0-1.66-6.69,5.87,5.87,0,0,0-9.4,0A11.46,11.46,0,0,0,654.52,396.26Z" transform="translate(-75.88 -79.33)"/><path class="cls-2" d="M708.08,391.56a4.05,4.05,0,0,0-1.27-3.29,5.24,5.24,0,0,0-3.43-1,11.84,11.84,0,0,0-2.85.36,7.43,7.43,0,0,0-2.43,1.09v25.08a16.87,16.87,0,0,1-2.27.43,22.61,22.61,0,0,1-3.22.22,16.34,16.34,0,0,1-2.85-.22,4.85,4.85,0,0,1-2.14-.86,4.2,4.2,0,0,1-1.33-1.77,7.58,7.58,0,0,1-.47-2.93V386.94a5.66,5.66,0,0,1,.82-3.19,9.18,9.18,0,0,1,2.28-2.24,20.84,20.84,0,0,1,6.18-2.81,29.28,29.28,0,0,1,8.28-1.09q8.16,0,12.57,3.58a12.09,12.09,0,0,1,4.41,9.94v22.62a16.87,16.87,0,0,1-2.27.43,22.51,22.51,0,0,1-3.22.22,16.54,16.54,0,0,1-2.86-.22,4.86,4.86,0,0,1-2.13-.86,4.28,4.28,0,0,1-1.33-1.77,7.58,7.58,0,0,1-.47-2.93Z" transform="translate(-75.88 -79.33)"/><path class="cls-2" d="M726.43,396.26a21.73,21.73,0,0,1,1.45-8.28,15.77,15.77,0,0,1,4-5.81,16.55,16.55,0,0,1,6-3.44,23.63,23.63,0,0,1,7.41-1.12,15.3,15.3,0,0,1,2.81.26,11.49,11.49,0,0,1,2.25.61V366.77a20.78,20.78,0,0,1,2.31-.47,20.46,20.46,0,0,1,3.25-.25,17.67,17.67,0,0,1,2.86.21,5,5,0,0,1,2.13.87,4,4,0,0,1,1.3,1.77,8.28,8.28,0,0,1,.43,2.93v34.26a6.18,6.18,0,0,1-3.17,5.42,22.36,22.36,0,0,1-5.43,2.42,25.42,25.42,0,0,1-7.66,1.05,25.1,25.1,0,0,1-8.42-1.31,16.86,16.86,0,0,1-6.28-3.75,16,16,0,0,1-3.91-5.89A21.31,21.31,0,0,1,726.43,396.26Zm20.53-9a7.81,7.81,0,0,0-6,2.25q-2.1,2.23-2.1,6.79c0,3,.66,5.24,2,6.76a7,7,0,0,0,5.64,2.27,6.46,6.46,0,0,0,2.34-.4,5.25,5.25,0,0,0,1.63-.9v-15.9A6.6,6.6,0,0,0,747,387.22Z" transform="translate(-75.88 -79.33)"/><path class="cls-3" d="M232.52,458.82a.6.6,0,0,1,.58.45q.92,3.57,1.73,6.56c.54,2,1,3.69,1.51,5.13a2.67,2.67,0,0,0,1.8,1.56,11.65,11.65,0,0,0,4.11.63,14.38,14.38,0,0,0,3.65-.46,6,6,0,0,0,2.32-1,25.65,25.65,0,0,0,1.08-3.19c.41-1.45.82-3.1,1.22-4.88s.77-3.68,1.13-5.69.68-3.87.95-5.68.49-3.42.65-4.9a32.59,32.59,0,0,0,.24-3.33,2.57,2.57,0,0,0-1.17-2.42,7.48,7.48,0,0,0-6.91.14c-.21,1.85-.41,3.67-.62,5.47l-.65,5.76c-.22,1.95-.46,3.92-.71,5.93s-.54,4.13-.87,6.34a.59.59,0,0,1-.59.51h-.27a.59.59,0,0,1-.58-.46c-.29-1.26-.59-2.47-.89-3.62s-.62-2.32-.95-3.5-.66-2.41-1-3.7l-1.12-4.15a2.4,2.4,0,0,0-1.52-1.6,8.9,8.9,0,0,0-3.55-.62,9.24,9.24,0,0,0-2.43.33,12.88,12.88,0,0,0-1.5.48c-.35,1.72-.67,3.26-1,4.62s-.65,2.78-1,4-.61,2.49-.9,3.71-.59,2.57-.92,4a.59.59,0,0,1-.58.46h-.27a.59.59,0,0,1-.58-.47c-.11-.52-.23-1.22-.33-2.11s-.29-2.09-.52-3.65-.54-3.6-.92-6.06-.86-5.54-1.44-9.23a3.66,3.66,0,0,0-1.41-2.62,5.45,5.45,0,0,0-3.06-.79,6.54,6.54,0,0,0-2.69.55,7.6,7.6,0,0,0-1.73,1c.13,1.43.34,3,.61,4.69s.61,3.69.95,5.61.7,3.71,1.13,5.73.83,3.7,1.22,5.34.79,3.11,1.16,4.37a19.83,19.83,0,0,0,1,2.81,3.67,3.67,0,0,0,2.25,1.63,13,13,0,0,0,4.23.64,11.89,11.89,0,0,0,3.42-.46,5.75,5.75,0,0,0,2.08-1c.43-1.51.89-3.35,1.42-5.51s1.06-4.53,1.57-6.88a.6.6,0,0,1,.57-.47Z" transform="translate(-75.88 -79.33)"/><path class="cls-3" d="M267,465.88h9.84a.6.6,0,0,1,.58.44l1,3.75a9.86,9.86,0,0,0,.58,1.52,2.77,2.77,0,0,0,.75.93,3.44,3.44,0,0,0,1.25.55,9.26,9.26,0,0,0,2.06.19,8.92,8.92,0,0,0,2.9-.42,4.13,4.13,0,0,0,1.49-.84l-1.81-6.53q-1.1-3.89-2.23-7.88c-.76-2.66-1.52-5.23-2.28-7.73s-1.45-4.63-2.11-6.55a3.57,3.57,0,0,0-2.33-2.11,14.14,14.14,0,0,0-8.23-.27,11.87,11.87,0,0,0-2.47.86c-.25.64-.57,1.51-1,2.62s-.94,2.63-1.49,4.2l-1.7,4.92c-.65,1.87-1.22,3.6-1.77,5.28s-1,3.24-1.49,4.69-.8,2.64-1.05,3.61c-.19.69-.35,1.3-.49,1.81a4.8,4.8,0,0,0-.2,1.35,2.5,2.5,0,0,0,1.08,2.16,6.69,6.69,0,0,0,3.76.83,8.57,8.57,0,0,0,1.9-.17,11.61,11.61,0,0,0,1.24-.34c.26-1,.53-2,.79-3.05s.58-2.29.87-3.38A.59.59,0,0,1,267,465.88Zm8.32-6.15h-6.74a.57.57,0,0,1-.47-.23.58.58,0,0,1-.1-.51c.51-1.95,1.09-3.87,1.72-5.72l1.71-5.07a.6.6,0,0,1,.56-.41h.33a.6.6,0,0,1,.57.43q.64,2.22,1.44,5T275.9,459a.58.58,0,0,1-.1.51A.6.6,0,0,1,275.33,459.73Z" transform="translate(-75.88 -79.33)"/><path class="cls-3" d="M302.16,465.88H312a.6.6,0,0,1,.58.44l1,3.75a9.86,9.86,0,0,0,.58,1.52,2.77,2.77,0,0,0,.75.93,3.52,3.52,0,0,0,1.25.55,9.26,9.26,0,0,0,2.06.19,8.88,8.88,0,0,0,2.9-.42,4.13,4.13,0,0,0,1.49-.84c-.52-1.91-1.13-4.08-1.81-6.53s-1.47-5.22-2.23-7.88-1.51-5.23-2.28-7.73-1.45-4.63-2.11-6.55a3.57,3.57,0,0,0-2.33-2.11,14.14,14.14,0,0,0-8.23-.27,12.09,12.09,0,0,0-2.47.86c-.24.64-.57,1.51-1,2.62s-.94,2.63-1.49,4.2l-1.7,4.92c-.65,1.87-1.22,3.6-1.77,5.28s-1,3.24-1.49,4.69-.8,2.64-1.05,3.61c-.19.69-.35,1.3-.49,1.81a4.79,4.79,0,0,0-.19,1.35,2.5,2.5,0,0,0,1.07,2.16,6.69,6.69,0,0,0,3.76.83,8.66,8.66,0,0,0,1.91-.17,12.09,12.09,0,0,0,1.23-.34c.26-1,.53-2,.79-3.05s.58-2.29.87-3.38A.59.59,0,0,1,302.16,465.88Zm8.31-6.15h-6.74a.59.59,0,0,1-.57-.74c.51-1.95,1.09-3.87,1.72-5.72l1.71-5.07a.6.6,0,0,1,.56-.41h.33a.6.6,0,0,1,.57.43q.66,2.22,1.44,5c.53,1.87,1,3.78,1.56,5.74a.61.61,0,0,1-.11.51A.6.6,0,0,1,310.47,459.73Z" transform="translate(-75.88 -79.33)"/><path class="cls-3" d="M337.14,462.07H340a.6.6,0,0,1,.51.29l4.56,7.33a15.1,15.1,0,0,0,1,1.47,5.52,5.52,0,0,0,1.08,1.08,4.27,4.27,0,0,0,1.35.67,6.37,6.37,0,0,0,1.88.24,4.87,4.87,0,0,0,2.89-.89,4.43,4.43,0,0,0,1.68-2.35,33.67,33.67,0,0,0-2.8-3.93c-1.28-1.57-2.58-3.26-3.88-5a.59.59,0,0,1-.1-.48.63.63,0,0,1,.29-.4,11.84,11.84,0,0,0,3.94-3.52,9,9,0,0,0,1.62-5.41,9.82,9.82,0,0,0-3.58-8.06c-2.42-2-6.09-3-10.92-3a44.14,44.14,0,0,0-5.15.29,19.75,19.75,0,0,0-4.16.93,3.93,3.93,0,0,0-1.49.86,1.83,1.83,0,0,0-.45,1.35v25.58a6.12,6.12,0,0,0,.29,2.07,2.44,2.44,0,0,0,.76,1.1,3,3,0,0,0,1.32.56,14.84,14.84,0,0,0,4.54,0c.55-.07,1-.15,1.35-.21v-10A.6.6,0,0,1,337.14,462.07Zm3.42-6h-3.48a.58.58,0,0,1-.59-.59V447.3a.6.6,0,0,1,.49-.59l1.12-.17c.35,0,.8-.05,1.37-.05a7.21,7.21,0,0,1,4.58,1.19,4.32,4.32,0,0,1,1.56,3.58,4.51,4.51,0,0,1-1.4,3.57A5.32,5.32,0,0,1,340.56,456Z" transform="translate(-75.88 -79.33)"/><path class="cls-3" d="M362.3,464.26a6.87,6.87,0,0,0-1.51,1.37,3.48,3.48,0,0,0-.79,2.31,3.64,3.64,0,0,0,.78,2.33,6.26,6.26,0,0,0,2.28,1.78,14.24,14.24,0,0,0,3.6,1.14,23.79,23.79,0,0,0,4.53.4c4.55,0,8-.92,10.33-2.72a9.11,9.11,0,0,0,.87-13.44,20.55,20.55,0,0,0-7.63-4l-2.88-.92a8,8,0,0,1-2.29-1,2.21,2.21,0,0,1-.95-1.82,2.55,2.55,0,0,1,1.43-2.22,7.79,7.79,0,0,1,3.89-.76,16.83,16.83,0,0,1,4.56.59,14.2,14.2,0,0,1,3,1.18,6,6,0,0,0,1.13-1.31,3.77,3.77,0,0,0,.56-2.09,3.34,3.34,0,0,0-.69-2.11,5.51,5.51,0,0,0-2-1.56,12.33,12.33,0,0,0-3.29-1,26.81,26.81,0,0,0-4.25-.32c-4.12,0-7.35.89-9.6,2.65a8.25,8.25,0,0,0-3.33,6.91,8.94,8.94,0,0,0,.73,3.8,7.89,7.89,0,0,0,2,2.65A12.64,12.64,0,0,0,366,458c1.29.56,2.74,1.11,4.3,1.65l2.27.75a11.85,11.85,0,0,1,2.59,1.18,2.49,2.49,0,0,1,1.14,2.16,2.93,2.93,0,0,1-1.33,2.38,7,7,0,0,1-4.1.93,13.64,13.64,0,0,1-5-.91A15.71,15.71,0,0,1,362.3,464.26Z" transform="translate(-75.88 -79.33)"/><path class="cls-3" d="M406.28,440a18.59,18.59,0,0,0-6.42,1.11,14.55,14.55,0,0,0-5.19,3.24,15.09,15.09,0,0,0-3.51,5.25,19.06,19.06,0,0,0-1.28,7.24,19.76,19.76,0,0,0,1.33,7.62,14.18,14.18,0,0,0,9,8.28,21.8,21.8,0,0,0,6.66,1c3.23,0,5.66-.49,7.21-1.46a3.87,3.87,0,0,0,2.19-3.27,5,5,0,0,0-.46-2.21,4.45,4.45,0,0,0-1-1.36,24.88,24.88,0,0,1-2.66,1.19,11.16,11.16,0,0,1-4,.64,9.42,9.42,0,0,1-7.07-2.73c-1.76-1.81-2.65-4.4-2.65-7.7s.8-5.8,2.37-7.61a8.67,8.67,0,0,1,6.86-2.76,10.47,10.47,0,0,1,3.95.7,18,18,0,0,1,2.77,1.41,5.37,5.37,0,0,0,1.16-1.25,3.64,3.64,0,0,0,.6-2.11,4.21,4.21,0,0,0-2.45-3.67A14.73,14.73,0,0,0,406.28,440Z" transform="translate(-75.88 -79.33)"/><path class="cls-3" d="M431.43,460h10.43a.59.59,0,0,1,.59.6v8.47a6,6,0,0,0,.29,2.07,2.25,2.25,0,0,0,.78,1.09,3.18,3.18,0,0,0,1.36.57,14.79,14.79,0,0,0,4.53,0c.55-.07,1-.15,1.36-.21V444.42a6.08,6.08,0,0,0-.29-2.07,2.25,2.25,0,0,0-.78-1.09,3.24,3.24,0,0,0-1.36-.57,13.48,13.48,0,0,0-4.5,0l-1.39.21v12.21a.59.59,0,0,1-.59.6H431.43a.6.6,0,0,1-.6-.6v-8.69a6.11,6.11,0,0,0-.28-2.07,2.36,2.36,0,0,0-.78-1.09,3.29,3.29,0,0,0-1.36-.57,14,14,0,0,0-4.5,0l-1.39.21v28.18a6.12,6.12,0,0,0,.29,2.07,2.25,2.25,0,0,0,.78,1.09,3.19,3.19,0,0,0,1.35.57,14.85,14.85,0,0,0,4.54,0c.55-.07,1-.15,1.35-.21v-12A.6.6,0,0,1,431.43,460Z" transform="translate(-75.88 -79.33)"/><path class="cls-3" d="M474,440a19.1,19.1,0,0,0-6.56,1.11,14.53,14.53,0,0,0-8.72,8.46,19.06,19.06,0,0,0-1.29,7.27,19.26,19.26,0,0,0,1.26,7.22,15.17,15.17,0,0,0,3.45,5.29,14.81,14.81,0,0,0,5.22,3.26,20.42,20.42,0,0,0,13.28,0,14.34,14.34,0,0,0,8.72-8.49,19.75,19.75,0,0,0,1.26-7.31,19.29,19.29,0,0,0-1.28-7.27,15.06,15.06,0,0,0-3.52-5.25,15.46,15.46,0,0,0-5.26-3.21A19.1,19.1,0,0,0,474,440Zm0,27.27a7.21,7.21,0,0,1-5.84-2.66c-1.42-1.73-2.15-4.34-2.15-7.77s.74-6,2.18-7.74a7.35,7.35,0,0,1,5.86-2.63,7.22,7.22,0,0,1,5.87,2.66c1.4,1.74,2.12,4.33,2.12,7.71s-.73,6-2.15,7.77A7.27,7.27,0,0,1,474,467.23Z" transform="translate(-75.88 -79.33)"/><path class="cls-3" d="M512.14,440a19,19,0,0,0-6.55,1.11,14.51,14.51,0,0,0-8.73,8.46,19.06,19.06,0,0,0-1.28,7.27,19.26,19.26,0,0,0,1.26,7.22,15.15,15.15,0,0,0,3.44,5.29,14.9,14.9,0,0,0,5.22,3.26,20.44,20.44,0,0,0,13.29,0,14.34,14.34,0,0,0,8.72-8.49,20,20,0,0,0,1.25-7.31,19.1,19.1,0,0,0-1.28-7.27,14.93,14.93,0,0,0-3.52-5.25,15.46,15.46,0,0,0-5.26-3.21A19.1,19.1,0,0,0,512.14,440Zm0,27.27a7.24,7.24,0,0,1-5.84-2.66c-1.42-1.73-2.14-4.34-2.14-7.77s.73-6,2.18-7.74a7.33,7.33,0,0,1,5.86-2.63,7.18,7.18,0,0,1,5.86,2.66c1.41,1.74,2.12,4.33,2.12,7.71s-.72,6-2.14,7.77A7.3,7.3,0,0,1,512.14,467.23Z" transform="translate(-75.88 -79.33)"/><path class="cls-3" d="M532.64,447.41h7.8a.6.6,0,0,1,.6.6v21.07a6,6,0,0,0,.29,2.07,2.3,2.3,0,0,0,.77,1.09,3.23,3.23,0,0,0,1.37.57,15.43,15.43,0,0,0,4.53,0c.55-.07,1-.15,1.35-.21V448a.6.6,0,0,1,.6-.6h6a2.85,2.85,0,0,0,2.06-.75,3.61,3.61,0,0,0,.76-2.62,6.33,6.33,0,0,0-.3-2,7.25,7.25,0,0,0-.48-1.21H534.69a2.82,2.82,0,0,0-2.06.76,3.57,3.57,0,0,0-.77,2.61,6.59,6.59,0,0,0,.3,2A7.25,7.25,0,0,0,532.64,447.41Z" transform="translate(-75.88 -79.33)"/></svg>