<?xml version="1.0" encoding="utf-8"?>
<!-- Generator: Adobe Illustrator 22.1.0, SVG Export Plug-In . SVG Version: 6.00 Build 0)  -->
<svg version="1.1" id="Laag_1" xmlns="http://www.w3.org/2000/svg" xmlns:xlink="http://www.w3.org/1999/xlink" x="0px" y="0px"
	 viewBox="0 0 841.9 595.3" style="enable-background:new 0 0 841.9 595.3;" xml:space="preserve">
<style type="text/css">
	.st0{fill:none;stroke:#E9433B;stroke-width:12.4707;stroke-miterlimit:10;}
</style>
<g>
	<g>
		<path class="st0" d="M415.6,442.2"/>
		<path class="st0" d="M396.8,149.1c25,54.7,31.4,106.3,33.1,129.3c0.7,9.1-2.9,18.1-9.8,23.9c-13.1,11-29,14.8-39.4,16.2
			c-6.8,0.9-13.6-0.6-19.5-4c-41-24.2-65.3-56.8-77.6-77.6c-7.2-12.2-7.9-27.1-1.9-39.9c13.1-28.2,28.9-49.3,28.9-49.3
			c5.9-9.5,22.2-34.3,48-44c68.2-24.6,124.5-14.8,124.5-14.8c15.8,2.2,29.9,8.6,40.6,14.8c10.6,6.2,19.9,14.2,28.1,23.3
			c10.6,11.7,29.8,25.6,89.5,14.6c10.1-1.9,19.8,4.5,22.3,14.4c24.5,97.5-105,125.8-105,125.8C468,301.3,437.7,409.2,437.7,409.2
			c-145.5-10.9-228.2-127.3-228.2-127.3c-9.1,8.2-15.5,31.8-15.5,31.8c69.4,122.4,221.7,128.4,221.7,128.4"/>
		<path class="st0" d="M623.1,144.4c10.4,24.4,20.2,33.2,43.6,27.8"/>
		<ellipse transform="matrix(0.1836 -0.983 0.983 0.1836 -133.2245 789.6058)" class="st0" cx="408.8" cy="475" rx="33.6" ry="23"/>
	</g>
</g>
</svg>
