<?xml version="1.0" encoding="utf-8"?>
<!-- Generator: Adobe Illustrator 22.1.0, SVG Export Plug-In . SVG Version: 6.00 Build 0)  -->
<svg version="1.1" id="Laag_1" xmlns="http://www.w3.org/2000/svg" xmlns:xlink="http://www.w3.org/1999/xlink" x="0px" y="0px"
	 viewBox="0 0 841.9 595.3" style="enable-background:new 0 0 841.9 595.3;" xml:space="preserve">
<style type="text/css">
	.st0{fill:none;stroke:#000000;stroke-width:7.8909;stroke-miterlimit:10;}
	.st1{fill:#08090A;stroke:#08090A;stroke-width:0.7504;stroke-miterlimit:10;}
</style>
<g>
	<g>
		<path class="st0" d="M410.1,308"/>
		<path class="st0" d="M398.2,122.6c15.8,34.6,19.9,67.3,20.9,81.8c0.4,5.7-1.8,11.4-6.2,15.1c-8.3,7-18.3,9.4-24.9,10.2
			c-4.3,0.5-8.6-0.4-12.3-2.6c-26-15.3-41.3-35.9-49.1-49.1c-4.6-7.7-5-17.1-1.2-25.3c8.3-17.8,18.3-31.2,18.3-31.2
			c3.7-6,14-21.7,30.4-27.9c43.2-15.5,78.8-9.3,78.8-9.3c10,1.4,18.9,5.4,25.7,9.4c6.7,3.9,12.6,9,17.8,14.7
			c6.7,7.4,18.8,16.2,56.6,9.3c6.4-1.2,12.5,2.8,14.1,9.1c15.5,61.7-66.5,79.6-66.5,79.6c-57.3,12.3-76.5,80.5-76.5,80.5
			c-92.1-6.9-144.4-80.5-144.4-80.5c-5.8,5.2-9.8,20.1-9.8,20.1c43.9,77.4,140.3,81.3,140.3,81.3"/>
		<path class="st0" d="M541.4,119.6c6.6,15.4,12.8,21,27.6,17.6"/>
		
			<ellipse transform="matrix(0.1836 -0.983 0.983 0.1836 8.0706 667.3091)" class="st0" cx="405.8" cy="328.8" rx="21.2" ry="14.6"/>
	</g>
</g>
<g>
	<path class="st1" d="M76.3,396.3c0-3.2,0.5-5.9,1.4-8.3c1-2.3,2.3-4.3,4-5.8c1.7-1.5,3.7-2.7,6-3.4c2.3-0.7,4.8-1.1,7.4-1.1
		c1,0,1.9,0.1,2.8,0.3c0.9,0.2,1.7,0.4,2.2,0.6v-11.7c0.5-0.1,1.3-0.3,2.3-0.5c1.1-0.2,2.1-0.3,3.3-0.3c1.1,0,2,0.1,2.9,0.2
		c0.8,0.1,1.6,0.4,2.1,0.9c0.6,0.4,1,1,1.3,1.8c0.3,0.7,0.4,1.7,0.4,2.9v34.3c0,2.3-1.1,4.1-3.2,5.4c-1.4,0.9-3.2,1.7-5.4,2.4
		c-2.2,0.7-4.8,1.1-7.7,1.1c-3.1,0-5.9-0.4-8.4-1.3c-2.5-0.9-4.6-2.1-6.3-3.8c-1.7-1.6-3-3.6-3.9-5.9
		C76.7,401.7,76.3,399.2,76.3,396.3z M96.8,387.2c-2.6,0-4.6,0.7-6,2.2c-1.4,1.5-2.1,3.8-2.1,6.8c0,3,0.7,5.2,2,6.8s3.2,2.3,5.6,2.3
		c0.9,0,1.6-0.1,2.3-0.4c0.7-0.3,1.2-0.6,1.6-0.9v-15.9C99.3,387.5,98.1,387.2,96.8,387.2z"/>
	<path class="st1" d="M138.7,415c-2.8,0-5.5-0.4-7.9-1.2c-2.4-0.8-4.6-2-6.4-3.6c-1.8-1.6-3.2-3.6-4.3-6c-1-2.4-1.6-5.2-1.6-8.5
		c0-3.2,0.5-5.9,1.6-8.2c1-2.3,2.4-4.2,4.1-5.6c1.7-1.5,3.6-2.6,5.8-3.3c2.2-0.7,4.4-1,6.7-1c2.6,0,4.9,0.4,7,1.2
		c2.1,0.8,3.9,1.8,5.4,3.2c1.5,1.3,2.7,3,3.5,4.8c0.8,1.9,1.3,3.9,1.3,6.1c0,1.6-0.5,2.9-1.4,3.8c-0.9,0.9-2.2,1.4-3.8,1.7
		l-17.9,2.7c0.5,1.6,1.6,2.8,3.3,3.6c1.6,0.8,3.5,1.2,5.6,1.2c2,0,3.8-0.3,5.6-0.8c1.8-0.5,3.2-1.1,4.3-1.8c0.8,0.5,1.4,1.2,2,2
		c0.5,0.9,0.8,1.8,0.8,2.7c0,2.2-1,3.8-3,4.8c-1.5,0.8-3.3,1.4-5.2,1.7C142.2,414.8,140.4,415,138.7,415z M136.7,386.6
		c-1.2,0-2.2,0.2-3,0.6c-0.8,0.4-1.5,0.9-2.1,1.5c-0.5,0.6-0.9,1.3-1.2,2c-0.3,0.7-0.4,1.5-0.5,2.3l12.4-2c-0.1-1-0.7-1.9-1.6-2.9
		C139.8,387.1,138.5,386.6,136.7,386.6z"/>
	<path class="st1" d="M191.4,377.6c2.7,0,5.2,0.3,7.5,1c2.2,0.7,4.1,1.6,5.7,2.7c1,0.7,1.7,1.4,2.3,2.2c0.6,0.8,0.8,1.9,0.8,3.2
		v25.3c0,2.6-0.5,4.8-1.4,6.6c-1,1.9-2.3,3.4-3.9,4.6c-1.7,1.2-3.6,2.1-5.9,2.7c-2.2,0.6-4.6,0.9-7.2,0.9c-4.4,0-7.8-0.6-10.3-1.8
		s-3.8-3.1-3.8-5.7c0-1.1,0.2-2.1,0.7-2.9c0.5-0.8,1-1.5,1.6-1.9c1.4,0.8,3,1.4,4.7,2c1.8,0.5,3.6,0.8,5.5,0.8
		c2.6,0,4.7-0.4,6.2-1.3c1.5-0.9,2.3-2.3,2.3-4.2v-1.2c-2,0.9-4.4,1.3-7.2,1.3c-2.2,0-4.2-0.3-6.2-1c-2-0.7-3.7-1.7-5.1-3
		c-1.5-1.4-2.7-3.1-3.5-5.3c-0.9-2.2-1.3-4.7-1.3-7.7c0-2.9,0.5-5.5,1.4-7.7c0.9-2.2,2.2-4,3.9-5.4c1.7-1.4,3.6-2.5,5.9-3.2
		C186.2,378,188.7,377.6,191.4,377.6z M195.9,388.1c-0.3-0.2-0.8-0.4-1.5-0.6c-0.6-0.2-1.5-0.3-2.4-0.3c-2.4,0-4.1,0.7-5.3,2
		c-1.2,1.3-1.8,3.2-1.8,5.7c0,2.8,0.6,4.8,1.8,6c1.2,1.2,2.7,1.8,4.5,1.8c2,0,3.5-0.5,4.7-1.4V388.1z"/>
	<path class="st1" d="M233.8,415c-2.8,0-5.5-0.4-7.9-1.2c-2.4-0.8-4.6-2-6.4-3.6c-1.8-1.6-3.2-3.6-4.3-6c-1-2.4-1.6-5.2-1.6-8.5
		c0-3.2,0.5-5.9,1.6-8.2c1-2.3,2.4-4.2,4.1-5.6c1.7-1.5,3.6-2.6,5.8-3.3c2.2-0.7,4.4-1,6.7-1c2.6,0,4.9,0.4,7,1.2
		c2.1,0.8,3.9,1.8,5.4,3.2c1.5,1.3,2.7,3,3.5,4.8c0.8,1.9,1.3,3.9,1.3,6.1c0,1.6-0.5,2.9-1.4,3.8c-0.9,0.9-2.2,1.4-3.8,1.7
		l-17.9,2.7c0.5,1.6,1.6,2.8,3.3,3.6c1.6,0.8,3.5,1.2,5.6,1.2c2,0,3.8-0.3,5.6-0.8s3.2-1.1,4.3-1.8c0.8,0.5,1.4,1.2,2,2
		c0.5,0.9,0.8,1.8,0.8,2.7c0,2.2-1,3.8-3,4.8c-1.5,0.8-3.3,1.4-5.2,1.7C237.3,414.8,235.5,415,233.8,415z M231.8,386.6
		c-1.2,0-2.2,0.2-3,0.6c-0.8,0.4-1.5,0.9-2.1,1.5c-0.5,0.6-0.9,1.3-1.2,2s-0.4,1.5-0.5,2.3l12.4-2c-0.1-1-0.7-1.9-1.6-2.9
		C234.9,387.1,233.6,386.6,231.8,386.6z"/>
	<path class="st1" d="M289.6,413.8c-0.5,0.1-1.2,0.3-2.3,0.4c-1,0.1-2.1,0.2-3.2,0.2c-1.1,0-2-0.1-2.9-0.2c-0.8-0.1-1.6-0.4-2.1-0.9
		c-0.6-0.4-1-1-1.3-1.8s-0.5-1.7-0.5-2.9v-16c0-2-0.5-3.4-1.5-4.2s-2.2-1.2-3.6-1.2c-1,0-1.9,0.1-2.7,0.4c-0.9,0.2-1.6,0.5-2.1,0.9
		v25.3c-0.5,0.1-1.2,0.3-2.3,0.4c-1,0.1-2.1,0.2-3.2,0.2c-1.1,0-2-0.1-2.9-0.2c-0.8-0.1-1.6-0.4-2.1-0.9c-0.6-0.4-1-1-1.3-1.8
		c-0.3-0.7-0.5-1.7-0.5-2.9v-41.9c0.5-0.1,1.3-0.2,2.3-0.4c1-0.2,2.1-0.3,3.1-0.3c1.1,0,2,0.1,2.9,0.2c0.8,0.1,1.6,0.4,2.1,0.9
		c0.6,0.4,1,1,1.3,1.8c0.3,0.7,0.5,1.7,0.5,2.9v7.1c0.6-0.2,1.6-0.5,2.9-0.8c1.3-0.3,2.7-0.5,4.2-0.5c4.8,0,8.5,1.2,11.2,3.6
		c2.7,2.4,4,5.9,4,10.7V413.8z"/>
	<path class="st1" d="M333.5,396.3c0,3-0.5,5.7-1.4,8c-0.9,2.3-2.2,4.3-3.9,5.9c-1.7,1.6-3.7,2.8-6,3.6c-2.3,0.8-4.9,1.2-7.7,1.2
		c-2.8,0-5.4-0.4-7.7-1.3c-2.3-0.9-4.3-2.1-6-3.7c-1.7-1.6-3-3.6-3.9-5.9c-0.9-2.3-1.4-4.9-1.4-7.8c0-2.8,0.5-5.4,1.4-7.7
		c0.9-2.3,2.2-4.3,3.9-5.9c1.7-1.6,3.6-2.9,6-3.7c2.3-0.9,4.9-1.3,7.7-1.3c2.8,0,5.4,0.4,7.7,1.3c2.3,0.9,4.3,2.1,6,3.8
		c1.7,1.6,3,3.6,3.9,5.9C333.1,390.9,333.5,393.5,333.5,396.3z M308.3,396.3c0,2.9,0.6,5.2,1.7,6.8c1.1,1.6,2.7,2.3,4.7,2.3
		s3.6-0.8,4.7-2.4c1.1-1.6,1.6-3.8,1.6-6.7s-0.6-5.1-1.7-6.7c-1.1-1.6-2.7-2.3-4.7-2.3c-2,0-3.6,0.8-4.7,2.3
		C308.8,391.1,308.3,393.4,308.3,396.3z"/>
	<path class="st1" d="M375.9,396.3c0,3-0.5,5.7-1.4,8c-0.9,2.3-2.2,4.3-3.9,5.9c-1.7,1.6-3.7,2.8-6,3.6c-2.3,0.8-4.9,1.2-7.7,1.2
		c-2.8,0-5.4-0.4-7.7-1.3c-2.3-0.9-4.3-2.1-6-3.7c-1.7-1.6-3-3.6-3.9-5.9c-0.9-2.3-1.4-4.9-1.4-7.8c0-2.8,0.5-5.4,1.4-7.7
		c0.9-2.3,2.2-4.3,3.9-5.9c1.7-1.6,3.6-2.9,6-3.7c2.3-0.9,4.9-1.3,7.7-1.3c2.8,0,5.4,0.4,7.7,1.3c2.3,0.9,4.3,2.1,6,3.8
		c1.7,1.6,3,3.6,3.9,5.9C375.4,390.9,375.9,393.5,375.9,396.3z M350.6,396.3c0,2.9,0.6,5.2,1.7,6.8c1.1,1.6,2.7,2.3,4.7,2.3
		s3.6-0.8,4.7-2.4c1.1-1.6,1.6-3.8,1.6-6.7s-0.6-5.1-1.7-6.7c-1.1-1.6-2.7-2.3-4.7-2.3s-3.6,0.8-4.7,2.3
		C351.2,391.1,350.6,393.4,350.6,396.3z"/>
	<path class="st1" d="M394.2,413.8c-0.5,0.1-1.2,0.3-2.3,0.4c-1,0.1-2.1,0.2-3.2,0.2c-1.1,0-2-0.1-2.9-0.2c-0.8-0.1-1.6-0.4-2.1-0.9
		s-1-1-1.3-1.8c-0.3-0.7-0.5-1.7-0.5-2.9v-21.7c0-1.1,0.2-2.1,0.6-2.9c0.4-0.8,1-1.5,1.8-2.1c0.8-0.6,1.7-1.2,2.9-1.7
		c1.1-0.5,2.3-0.9,3.6-1.3c1.3-0.4,2.7-0.7,4.1-0.9c1.4-0.2,2.8-0.3,4.2-0.3c2.3,0,4.1,0.4,5.5,1.3c1.3,0.9,2,2.4,2,4.4
		c0,0.7-0.1,1.3-0.3,2c-0.2,0.6-0.4,1.2-0.7,1.8c-1,0-2,0-3.1,0.1c-1.1,0.1-2.1,0.2-3.1,0.4s-2,0.4-2.9,0.6
		c-0.9,0.2-1.7,0.5-2.3,0.8V413.8z"/>
	<path class="st1" d="M413.1,413.8c-0.8-0.7-1.4-1.5-1.8-2.4c-0.5-0.9-0.7-1.9-0.7-3.1c0-1,0.2-1.9,0.7-2.9c0.5-0.9,1-1.8,1.7-2.6
		l12.4-14.6H412c-0.3-0.5-0.6-1.2-0.8-2c-0.3-0.8-0.4-1.7-0.4-2.7c0-1.7,0.4-2.9,1.1-3.6s1.7-1.1,3-1.1h22.8
		c0.8,0.7,1.4,1.5,1.8,2.4c0.5,0.9,0.7,2,0.7,3.1c0,1-0.2,1.9-0.7,2.9c-0.5,0.9-1,1.8-1.7,2.6l-12.1,14.6h14.2
		c0.3,0.5,0.6,1.2,0.8,2c0.3,0.8,0.4,1.7,0.4,2.7c0,1.7-0.4,2.9-1.1,3.7s-1.7,1.1-3,1.1H413.1z"/>
	<path class="st1" d="M461,377.6c2.6,0,5,0.3,7.1,0.8c2.1,0.5,4,1.3,5.5,2.4c1.5,1.1,2.7,2.5,3.5,4.1c0.8,1.7,1.2,3.6,1.2,5.9V407
		c0,1.3-0.4,2.3-1,3.1c-0.7,0.8-1.5,1.5-2.5,2.1c-3.1,1.9-7.5,2.8-13.2,2.8c-2.6,0-4.9-0.2-6.9-0.7c-2-0.5-3.8-1.2-5.3-2.2
		s-2.6-2.2-3.4-3.7c-0.8-1.5-1.2-3.2-1.2-5.2c0-3.3,1-5.9,3-7.7s5-2.9,9.2-3.3l9.5-1v-0.5c0-1.4-0.6-2.4-1.8-3s-3-0.9-5.3-0.9
		c-1.8,0-3.6,0.2-5.4,0.6c-1.7,0.4-3.3,0.9-4.7,1.4c-0.6-0.4-1.2-1.1-1.6-2c-0.4-0.9-0.6-1.8-0.6-2.8c0-1.3,0.3-2.3,0.9-3
		c0.6-0.7,1.5-1.4,2.8-1.9c1.4-0.5,3-0.9,5-1.2C457.6,377.7,459.4,377.6,461,377.6z M461.6,406c0.8,0,1.7-0.1,2.7-0.3
		c1-0.2,1.7-0.4,2.2-0.7v-5.8l-5.2,0.4c-1.4,0.1-2.5,0.4-3.3,0.9c-0.9,0.5-1.3,1.2-1.3,2.2s0.4,1.7,1.1,2.3
		C458.6,405.7,459.8,406,461.6,406z"/>
	<path class="st1" d="M502.7,377.6c2,0,3.9,0.3,5.8,0.8c1.9,0.6,3.6,1.4,5,2.5c1.4-1,3.1-1.8,4.9-2.4c1.8-0.6,4-0.9,6.5-0.9
		c1.8,0,3.6,0.2,5.4,0.7c1.8,0.5,3.3,1.2,4.7,2.3c1.4,1,2.5,2.4,3.3,4.1c0.8,1.7,1.2,3.8,1.2,6.3v22.8c-0.5,0.1-1.2,0.3-2.3,0.4
		c-1,0.1-2.1,0.2-3.2,0.2c-1.1,0-2-0.1-2.9-0.2c-0.8-0.1-1.6-0.4-2.1-0.9c-0.6-0.4-1-1-1.3-1.8c-0.3-0.7-0.5-1.7-0.5-2.9v-17.3
		c0-1.4-0.4-2.5-1.2-3.1c-0.8-0.7-1.9-1-3.3-1c-0.7,0-1.4,0.2-2.2,0.5s-1.4,0.6-1.7,1c0,0.2,0.1,0.4,0.1,0.5s0,0.3,0,0.5v24.1
		c-0.5,0.1-1.3,0.3-2.3,0.4c-1,0.1-2.1,0.2-3.1,0.2c-1.1,0-2-0.1-2.9-0.2c-0.8-0.1-1.6-0.4-2.1-0.9c-0.6-0.4-1-1-1.3-1.8
		c-0.3-0.7-0.5-1.7-0.5-2.9v-17.3c0-1.4-0.4-2.5-1.3-3.1c-0.9-0.7-2-1-3.2-1c-0.9,0-1.6,0.1-2.2,0.4c-0.6,0.3-1.2,0.5-1.6,0.8v25.4
		c-0.5,0.1-1.2,0.3-2.3,0.4c-1,0.1-2.1,0.2-3.2,0.2c-1.1,0-2-0.1-2.9-0.2c-0.8-0.1-1.6-0.4-2.1-0.9c-0.6-0.4-1-1-1.3-1.8
		c-0.3-0.7-0.5-1.7-0.5-2.9v-21.8c0-1.3,0.3-2.3,0.8-3.1s1.3-1.5,2.3-2.2c1.6-1.2,3.7-2.1,6.1-2.8
		C497.5,378,500.1,377.6,502.7,377.6z"/>
	<path class="st1" d="M565.6,415c-2.8,0-5.5-0.4-7.9-1.2c-2.4-0.8-4.6-2-6.4-3.6c-1.8-1.6-3.2-3.6-4.3-6c-1-2.4-1.6-5.2-1.6-8.5
		c0-3.2,0.5-5.9,1.6-8.2c1-2.3,2.4-4.2,4.1-5.6c1.7-1.5,3.6-2.6,5.8-3.3c2.2-0.7,4.4-1,6.7-1c2.6,0,4.9,0.4,7,1.2
		c2.1,0.8,3.9,1.8,5.4,3.2c1.5,1.3,2.7,3,3.5,4.8c0.8,1.9,1.3,3.9,1.3,6.1c0,1.6-0.5,2.9-1.4,3.8c-0.9,0.9-2.2,1.4-3.8,1.7
		l-17.9,2.7c0.5,1.6,1.6,2.8,3.3,3.6c1.6,0.8,3.5,1.2,5.6,1.2c2,0,3.8-0.3,5.6-0.8c1.8-0.5,3.2-1.1,4.3-1.8c0.8,0.5,1.4,1.2,2,2
		c0.5,0.9,0.8,1.8,0.8,2.7c0,2.2-1,3.8-3,4.8c-1.5,0.8-3.3,1.4-5.2,1.7C569.1,414.8,567.3,415,565.6,415z M563.6,386.6
		c-1.2,0-2.2,0.2-3,0.6c-0.8,0.4-1.5,0.9-2.1,1.5c-0.5,0.6-0.9,1.3-1.2,2c-0.3,0.7-0.4,1.5-0.5,2.3l12.4-2c-0.1-1-0.7-1.9-1.6-2.9
		S565.4,386.6,563.6,386.6z"/>
	<path class="st1" d="M635.9,413.8c-0.5,0.1-1.2,0.3-2.3,0.4c-1,0.1-2.1,0.2-3.2,0.2c-1.1,0-2-0.1-2.9-0.2c-0.8-0.1-1.6-0.4-2.1-0.9
		c-0.6-0.4-1-1-1.3-1.8c-0.3-0.7-0.5-1.7-0.5-2.9v-16c0-2-0.5-3.4-1.5-4.2c-1-0.8-2.2-1.2-3.6-1.2c-1,0-1.9,0.1-2.7,0.4
		c-0.9,0.2-1.6,0.5-2.1,0.9v25.3c-0.5,0.1-1.2,0.3-2.3,0.4c-1,0.1-2.1,0.2-3.2,0.2c-1.1,0-2-0.1-2.9-0.2c-0.8-0.1-1.6-0.4-2.1-0.9
		c-0.6-0.4-1-1-1.3-1.8c-0.3-0.7-0.5-1.7-0.5-2.9v-41.9c0.5-0.1,1.3-0.2,2.3-0.4c1-0.2,2.1-0.3,3.1-0.3c1.1,0,2,0.1,2.9,0.2
		c0.8,0.1,1.6,0.4,2.1,0.9c0.6,0.4,1,1,1.3,1.8c0.3,0.7,0.5,1.7,0.5,2.9v7.1c0.6-0.2,1.6-0.5,2.9-0.8c1.3-0.3,2.7-0.5,4.2-0.5
		c4.8,0,8.5,1.2,11.2,3.6c2.7,2.4,4,5.9,4,10.7V413.8z"/>
	<path class="st1" d="M679.8,396.3c0,3-0.5,5.7-1.4,8c-0.9,2.3-2.2,4.3-3.9,5.9c-1.7,1.6-3.7,2.8-6,3.6c-2.3,0.8-4.9,1.2-7.7,1.2
		c-2.8,0-5.4-0.4-7.7-1.3c-2.3-0.9-4.3-2.1-6-3.7c-1.7-1.6-3-3.6-3.9-5.9c-0.9-2.3-1.4-4.9-1.4-7.8c0-2.8,0.5-5.4,1.4-7.7
		c0.9-2.3,2.2-4.3,3.9-5.9c1.7-1.6,3.6-2.9,6-3.7c2.3-0.9,4.9-1.3,7.7-1.3c2.8,0,5.4,0.4,7.7,1.3c2.3,0.9,4.3,2.1,6,3.8
		c1.7,1.6,3,3.6,3.9,5.9C679.4,390.9,679.8,393.5,679.8,396.3z M654.5,396.3c0,2.9,0.6,5.2,1.7,6.8c1.1,1.6,2.7,2.3,4.7,2.3
		s3.6-0.8,4.7-2.4c1.1-1.6,1.6-3.8,1.6-6.7s-0.6-5.1-1.7-6.7c-1.1-1.6-2.7-2.3-4.7-2.3s-3.6,0.8-4.7,2.3
		C655.1,391.1,654.5,393.4,654.5,396.3z"/>
	<path class="st1" d="M708.1,391.6c0-1.5-0.4-2.6-1.3-3.3c-0.8-0.7-2-1-3.4-1c-1,0-1.9,0.1-2.9,0.4c-0.9,0.2-1.7,0.6-2.4,1.1v25.1
		c-0.5,0.1-1.2,0.3-2.3,0.4c-1,0.1-2.1,0.2-3.2,0.2c-1.1,0-2-0.1-2.9-0.2c-0.8-0.1-1.6-0.4-2.1-0.9s-1-1-1.3-1.8
		c-0.3-0.7-0.5-1.7-0.5-2.9v-21.7c0-1.3,0.3-2.4,0.8-3.2c0.6-0.8,1.3-1.6,2.3-2.2c1.6-1.2,3.7-2.1,6.2-2.8c2.5-0.7,5.2-1.1,8.3-1.1
		c5.4,0,9.6,1.2,12.6,3.6c2.9,2.4,4.4,5.7,4.4,9.9v22.6c-0.5,0.1-1.2,0.3-2.3,0.4c-1,0.1-2.1,0.2-3.2,0.2c-1.1,0-2-0.1-2.9-0.2
		c-0.8-0.1-1.6-0.4-2.1-0.9c-0.6-0.4-1-1-1.3-1.8c-0.3-0.7-0.5-1.7-0.5-2.9V391.6z"/>
	<path class="st1" d="M726.4,396.3c0-3.2,0.5-5.9,1.4-8.3c1-2.3,2.3-4.3,4-5.8c1.7-1.5,3.7-2.7,6-3.4c2.3-0.7,4.8-1.1,7.4-1.1
		c1,0,1.9,0.1,2.8,0.3c0.9,0.2,1.7,0.4,2.2,0.6v-11.7c0.5-0.1,1.3-0.3,2.3-0.5c1.1-0.2,2.1-0.3,3.3-0.3c1.1,0,2,0.1,2.9,0.2
		c0.8,0.1,1.6,0.4,2.1,0.9c0.6,0.4,1,1,1.3,1.8c0.3,0.7,0.4,1.7,0.4,2.9v34.3c0,2.3-1.1,4.1-3.2,5.4c-1.4,0.9-3.2,1.7-5.4,2.4
		c-2.2,0.7-4.8,1.1-7.7,1.1c-3.1,0-5.9-0.4-8.4-1.3c-2.5-0.9-4.6-2.1-6.3-3.8c-1.7-1.6-3-3.6-3.9-5.9
		C726.9,401.7,726.4,399.2,726.4,396.3z M747,387.2c-2.6,0-4.6,0.7-6,2.2c-1.4,1.5-2.1,3.8-2.1,6.8c0,3,0.7,5.2,2,6.8
		s3.2,2.3,5.6,2.3c0.9,0,1.6-0.1,2.3-0.4c0.7-0.3,1.2-0.6,1.6-0.9v-15.9C749.5,387.5,748.3,387.2,747,387.2z"/>
</g>
<g>
	<g>
		<path d="M232.5,458.8c0.3,0,0.5,0.2,0.6,0.4c0.6,2.4,1.2,4.6,1.7,6.6c0.5,2,1,3.7,1.5,5.1c0.2,0.7,0.8,1.2,1.8,1.6
			c1.1,0.4,2.5,0.6,4.1,0.6c1.2,0,2.5-0.2,3.7-0.5c1.1-0.3,1.8-0.6,2.3-1c0.3-0.8,0.7-1.8,1.1-3.2c0.4-1.5,0.8-3.1,1.2-4.9
			c0.4-1.8,0.8-3.7,1.1-5.7c0.4-2,0.7-3.9,0.9-5.7c0.3-1.8,0.5-3.4,0.7-4.9c0.2-1.4,0.2-2.6,0.2-3.3c0-1.2-0.4-2-1.2-2.4
			c-1.8-1.1-4.6-1-6.9,0.1c-0.2,1.8-0.4,3.7-0.6,5.5l-0.7,5.8c-0.2,1.9-0.5,3.9-0.7,5.9c-0.3,2-0.5,4.1-0.9,6.3
			c0,0.3-0.3,0.5-0.6,0.5h-0.3c-0.3,0-0.5-0.2-0.6-0.5c-0.3-1.3-0.6-2.5-0.9-3.6s-0.6-2.3-0.9-3.5c-0.3-1.2-0.7-2.4-1-3.7l-1.1-4.2
			c-0.2-0.7-0.7-1.2-1.5-1.6c-0.9-0.4-2.1-0.6-3.6-0.6c-0.8,0-1.6,0.1-2.4,0.3c-0.6,0.2-1.1,0.3-1.5,0.5c-0.3,1.7-0.7,3.3-1,4.6
			c-0.3,1.4-0.6,2.8-1,4c-0.3,1.2-0.6,2.5-0.9,3.7c-0.3,1.2-0.6,2.6-0.9,4c-0.1,0.3-0.3,0.5-0.6,0.5h-0.3c-0.3,0-0.5-0.2-0.6-0.5
			c-0.1-0.5-0.2-1.2-0.3-2.1c-0.1-0.9-0.3-2.1-0.5-3.7c-0.2-1.6-0.5-3.6-0.9-6.1c-0.4-2.5-0.9-5.5-1.4-9.2c-0.2-1.2-0.7-2.1-1.4-2.6
			c-0.8-0.5-1.8-0.8-3.1-0.8c-1,0-1.9,0.2-2.7,0.5c-0.7,0.3-1.3,0.7-1.7,1c0.1,1.4,0.3,3,0.6,4.7c0.3,1.8,0.6,3.7,0.9,5.6
			c0.3,1.8,0.7,3.7,1.1,5.7c0.4,1.9,0.8,3.7,1.2,5.3c0.4,1.6,0.8,3.1,1.2,4.4c0.4,1.3,0.7,2.2,1,2.8c0.3,0.7,1.1,1.2,2.2,1.6
			c1.3,0.4,2.7,0.6,4.2,0.6c1.2,0,2.4-0.2,3.4-0.5c0.9-0.3,1.6-0.6,2.1-1c0.4-1.5,0.9-3.4,1.4-5.5c0.5-2.2,1.1-4.5,1.6-6.9
			C232,459,232.2,458.8,232.5,458.8C232.5,458.8,232.5,458.8,232.5,458.8z"/>
	</g>
	<g>
		<path d="M267,465.9h9.8c0.3,0,0.5,0.2,0.6,0.4l1,3.7c0.2,0.6,0.4,1.1,0.6,1.5c0.2,0.4,0.4,0.7,0.8,0.9c0.3,0.2,0.7,0.4,1.2,0.5
			c0.6,0.1,1.2,0.2,2.1,0.2c1.1,0,2.1-0.1,2.9-0.4c0.6-0.2,1.1-0.5,1.5-0.8c-0.5-1.9-1.1-4.1-1.8-6.5c-0.7-2.6-1.5-5.2-2.2-7.9
			c-0.8-2.7-1.5-5.2-2.3-7.7c-0.7-2.4-1.4-4.6-2.1-6.6c-0.3-1-1.1-1.6-2.3-2.1c-2.3-0.9-5.3-1-8.2-0.3c-1.1,0.3-1.9,0.6-2.5,0.9
			c-0.2,0.6-0.6,1.5-1,2.6c-0.5,1.2-0.9,2.6-1.5,4.2l-1.7,4.9c-0.7,1.9-1.2,3.6-1.8,5.3c-0.5,1.7-1,3.2-1.5,4.7
			c-0.4,1.4-0.8,2.6-1.1,3.6c-0.2,0.7-0.3,1.3-0.5,1.8c-0.1,0.4-0.2,0.9-0.2,1.4c0,0.9,0.4,1.6,1.1,2.2c0.8,0.6,2,0.8,3.8,0.8
			c0.8,0,1.4-0.1,1.9-0.2c0.4-0.1,0.9-0.2,1.2-0.3c0.3-1,0.5-2,0.8-3.1c0.3-1.2,0.6-2.3,0.9-3.4C266.5,466.1,266.7,465.9,267,465.9z
			 M275.3,459.7h-6.7c-0.2,0-0.4-0.1-0.5-0.2c-0.1-0.1-0.2-0.3-0.1-0.5c0.5-1.9,1.1-3.9,1.7-5.7c0.6-1.9,1.2-3.6,1.7-5.1
			c0.1-0.2,0.3-0.4,0.6-0.4h0.3c0.3,0,0.5,0.2,0.6,0.4c0.4,1.5,0.9,3.2,1.4,5c0.5,1.9,1,3.8,1.6,5.7c0,0.2,0,0.4-0.1,0.5
			C275.7,459.6,275.5,459.7,275.3,459.7z"/>
	</g>
	<g>
		<path d="M302.2,465.9h9.8c0.3,0,0.5,0.2,0.6,0.4l1,3.7c0.2,0.6,0.4,1.1,0.6,1.5c0.2,0.4,0.4,0.7,0.8,0.9c0.3,0.2,0.7,0.4,1.2,0.5
			c0.6,0.1,1.2,0.2,2.1,0.2c1.1,0,2.1-0.1,2.9-0.4c0.6-0.2,1.1-0.5,1.5-0.8c-0.5-1.9-1.1-4.1-1.8-6.5c-0.7-2.6-1.5-5.2-2.2-7.9
			c-0.8-2.7-1.5-5.2-2.3-7.7c-0.7-2.4-1.4-4.6-2.1-6.6c-0.3-1-1.1-1.6-2.3-2.1c-2.3-0.9-5.3-1-8.2-0.3c-1.1,0.3-1.9,0.6-2.5,0.9
			c-0.2,0.6-0.6,1.5-1,2.6c-0.5,1.2-0.9,2.6-1.5,4.2l-1.7,4.9c-0.7,1.9-1.2,3.6-1.8,5.3c-0.5,1.7-1,3.2-1.5,4.7
			c-0.4,1.4-0.8,2.6-1.1,3.6c-0.2,0.7-0.3,1.3-0.5,1.8c-0.1,0.4-0.2,0.9-0.2,1.4c0,0.9,0.4,1.6,1.1,2.2c0.8,0.6,2,0.8,3.8,0.8
			c0.8,0,1.4-0.1,1.9-0.2c0.4-0.1,0.9-0.2,1.2-0.3c0.3-1,0.5-2,0.8-3.1c0.3-1.2,0.6-2.3,0.9-3.4
			C301.7,466.1,301.9,465.9,302.2,465.9z M310.5,459.7h-6.7c-0.2,0-0.4-0.1-0.5-0.2c-0.1-0.1-0.2-0.3-0.1-0.5
			c0.5-1.9,1.1-3.9,1.7-5.7c0.6-1.9,1.2-3.6,1.7-5.1c0.1-0.2,0.3-0.4,0.6-0.4h0.3c0.3,0,0.5,0.2,0.6,0.4c0.4,1.5,0.9,3.2,1.4,5
			c0.5,1.9,1,3.8,1.6,5.7c0,0.2,0,0.4-0.1,0.5C310.8,459.6,310.7,459.7,310.5,459.7z"/>
	</g>
	<g>
		<path d="M337.1,462.1h2.9c0.2,0,0.4,0.1,0.5,0.3l4.6,7.3c0.3,0.5,0.6,1,1,1.5c0.3,0.4,0.7,0.8,1.1,1.1c0.4,0.3,0.8,0.5,1.3,0.7
			c0.5,0.2,1.1,0.2,1.9,0.2c1.1,0,2-0.3,2.9-0.9c0.8-0.6,1.3-1.3,1.7-2.3c-0.7-1.2-1.6-2.5-2.8-3.9c-1.3-1.6-2.6-3.3-3.9-5
			c-0.1-0.1-0.1-0.3-0.1-0.5c0-0.2,0.1-0.3,0.3-0.4c1.5-0.8,2.8-2,3.9-3.5c1.1-1.5,1.6-3.3,1.6-5.4c0-3.4-1.2-6.1-3.6-8.1
			c-2.4-2-6.1-3-10.9-3c-1.8,0-3.5,0.1-5.1,0.3c-1.6,0.2-3,0.5-4.2,0.9c-0.6,0.2-1.1,0.5-1.5,0.9c-0.3,0.3-0.4,0.7-0.4,1.3v25.6
			c0,0.9,0.1,1.6,0.3,2.1c0.2,0.5,0.4,0.8,0.8,1.1c0.3,0.3,0.8,0.5,1.3,0.6c1.2,0.2,2.9,0.2,4.5,0c0.5-0.1,1-0.1,1.4-0.2v-10
			C336.5,462.3,336.8,462.1,337.1,462.1z M340.6,456h-3.5c-0.3,0-0.6-0.3-0.6-0.6v-8.2c0-0.3,0.2-0.5,0.5-0.6
			c0.4-0.1,0.8-0.1,1.1-0.2c0.4,0,0.8-0.1,1.4-0.1c2.1,0,3.6,0.4,4.6,1.2c1,0.8,1.6,2,1.6,3.6c0,1.5-0.5,2.8-1.4,3.6
			C343.3,455.6,342.1,456,340.6,456z"/>
	</g>
	<g>
		<path d="M362.3,464.3c-0.5,0.3-1,0.8-1.5,1.4c-0.5,0.6-0.8,1.4-0.8,2.3c0,0.9,0.3,1.7,0.8,2.3c0.5,0.7,1.3,1.3,2.3,1.8
			c1,0.5,2.2,0.9,3.6,1.1c1.4,0.3,2.9,0.4,4.5,0.4c4.5,0,8-0.9,10.3-2.7c2.3-1.8,3.4-4.1,3.4-7c0-2.7-0.9-4.9-2.5-6.4
			c-1.8-1.6-4.3-3-7.6-4l-2.9-0.9c-1-0.3-1.8-0.7-2.3-1c-0.6-0.5-1-1.1-1-1.8c0-0.6,0.3-1.5,1.4-2.2c0.9-0.5,2.1-0.8,3.9-0.8
			c1.6,0,3.2,0.2,4.6,0.6c1.2,0.3,2.2,0.7,3,1.2c0.4-0.4,0.8-0.8,1.1-1.3c0.4-0.6,0.6-1.3,0.6-2.1c0-0.8-0.2-1.5-0.7-2.1
			c-0.5-0.6-1.2-1.1-2-1.6c-0.9-0.4-2-0.8-3.3-1c-1.3-0.2-2.7-0.3-4.3-0.3c-4.1,0-7.3,0.9-9.6,2.6c-2.2,1.7-3.3,4-3.3,6.9
			c0,1.5,0.2,2.8,0.7,3.8c0.5,1,1.2,1.9,2,2.7c0.9,0.8,2,1.4,3.2,1.9c1.3,0.6,2.7,1.1,4.3,1.6l2.3,0.8c1.1,0.4,2,0.8,2.6,1.2
			c0.7,0.5,1.1,1.2,1.1,2.2c0,0.9-0.4,1.7-1.3,2.4c-0.8,0.6-2.2,0.9-4.1,0.9c-1.8,0-3.5-0.3-5-0.9
			C364.5,465.6,363.3,465,362.3,464.3z"/>
	</g>
	<g>
		<path d="M406.3,440c-2.3,0-4.4,0.4-6.4,1.1c-2,0.7-3.7,1.8-5.2,3.2c-1.5,1.4-2.7,3.2-3.5,5.3c-0.9,2.1-1.3,4.5-1.3,7.2
			c0,3,0.4,5.5,1.3,7.6c0.9,2.1,2.1,3.9,3.6,5.2c1.5,1.4,3.3,2.4,5.4,3.1c2.1,0.7,4.3,1,6.7,1c3.2,0,5.7-0.5,7.2-1.5
			c1.5-0.9,2.2-2,2.2-3.3c0-0.8-0.2-1.6-0.5-2.2c-0.3-0.5-0.6-1-1-1.4c-0.8,0.4-1.7,0.8-2.7,1.2c-1.1,0.4-2.4,0.6-4,0.6
			c-2.9,0-5.3-0.9-7.1-2.7c-1.8-1.8-2.6-4.4-2.6-7.7c0-3.2,0.8-5.8,2.4-7.6c1.6-1.8,3.9-2.8,6.9-2.8c1.5,0,2.8,0.2,3.9,0.7
			c1,0.4,1.9,0.9,2.8,1.4c0.4-0.3,0.8-0.8,1.2-1.2c0.4-0.6,0.6-1.3,0.6-2.1c0-1.5-0.8-2.7-2.5-3.7C412,440.5,409.5,440,406.3,440z"
			/>
	</g>
	<g>
		<path d="M431.4,460h10.4c0.3,0,0.6,0.3,0.6,0.6v8.5c0,0.9,0.1,1.6,0.3,2.1c0.2,0.5,0.4,0.8,0.8,1.1c0.4,0.3,0.8,0.5,1.4,0.6
			c1.2,0.2,2.9,0.2,4.5,0c0.5-0.1,1-0.1,1.4-0.2v-28.2c0-0.9-0.1-1.6-0.3-2.1c-0.2-0.5-0.4-0.8-0.8-1.1c-0.4-0.3-0.8-0.5-1.4-0.6
			c-1.2-0.2-2.7-0.3-4.5,0c-0.6,0.1-1,0.2-1.4,0.2v12.2c0,0.3-0.3,0.6-0.6,0.6h-10.4c-0.3,0-0.6-0.3-0.6-0.6v-8.7
			c0-0.9-0.1-1.6-0.3-2.1c-0.2-0.5-0.4-0.8-0.8-1.1c-0.4-0.3-0.8-0.5-1.4-0.6c-1.2-0.2-2.8-0.2-4.5,0c-0.6,0.1-1,0.2-1.4,0.2v28.2
			c0,0.9,0.1,1.6,0.3,2.1c0.2,0.5,0.4,0.8,0.8,1.1c0.4,0.3,0.8,0.5,1.4,0.6c1.2,0.2,2.9,0.2,4.5,0c0.5-0.1,1-0.1,1.4-0.2v-12
			C430.8,460.3,431.1,460,431.4,460z"/>
	</g>
	<g>
		<path d="M474,440c-2.4,0-4.6,0.4-6.6,1.1c-2,0.7-3.8,1.8-5.2,3.2c-1.5,1.4-2.6,3.2-3.5,5.3c-0.9,2.1-1.3,4.5-1.3,7.3
			c0,2.7,0.4,5.1,1.3,7.2c0.8,2.1,2,3.9,3.4,5.3c1.4,1.4,3.2,2.5,5.2,3.3c4.1,1.5,9.2,1.5,13.3,0c2-0.7,3.8-1.8,5.3-3.2
			c1.5-1.4,2.6-3.2,3.5-5.3c0.8-2.1,1.3-4.6,1.3-7.3c0-2.7-0.4-5.2-1.3-7.3c-0.9-2.1-2-3.9-3.5-5.3c-1.5-1.4-3.3-2.5-5.3-3.2
			C478.5,440.3,476.3,440,474,440z M474,467.2c-2.4,0-4.4-0.9-5.8-2.7c-1.4-1.7-2.1-4.3-2.1-7.8c0-3.4,0.7-6,2.2-7.7
			c1.5-1.7,3.4-2.6,5.9-2.6c2.5,0,4.4,0.9,5.9,2.7c1.4,1.7,2.1,4.3,2.1,7.7c0,3.4-0.7,6-2.1,7.8C478.4,466.3,476.4,467.2,474,467.2z
			"/>
	</g>
	<g>
		<path d="M512.1,440c-2.4,0-4.6,0.4-6.6,1.1c-2,0.7-3.8,1.8-5.2,3.2c-1.5,1.4-2.6,3.2-3.5,5.3c-0.9,2.1-1.3,4.5-1.3,7.3
			c0,2.7,0.4,5.1,1.3,7.2c0.8,2.1,2,3.9,3.4,5.3c1.4,1.4,3.2,2.5,5.2,3.3c4.1,1.5,9.2,1.5,13.3,0c2-0.7,3.8-1.8,5.3-3.2
			c1.5-1.4,2.6-3.2,3.5-5.3c0.8-2.1,1.3-4.6,1.3-7.3c0-2.7-0.4-5.2-1.3-7.3c-0.9-2.1-2-3.9-3.5-5.3c-1.5-1.4-3.3-2.5-5.3-3.2
			C516.7,440.3,514.5,440,512.1,440z M512.1,467.2c-2.4,0-4.4-0.9-5.8-2.7c-1.4-1.7-2.1-4.3-2.1-7.8c0-3.4,0.7-6,2.2-7.7
			c1.5-1.7,3.4-2.6,5.9-2.6c2.5,0,4.4,0.9,5.9,2.7c1.4,1.7,2.1,4.3,2.1,7.7c0,3.4-0.7,6-2.1,7.8
			C516.6,466.3,514.6,467.2,512.1,467.2z"/>
	</g>
	<g>
		<path d="M532.6,447.4h7.8c0.3,0,0.6,0.3,0.6,0.6v21.1c0,0.9,0.1,1.6,0.3,2.1c0.2,0.5,0.4,0.8,0.8,1.1c0.4,0.3,0.8,0.5,1.4,0.6
			c1.2,0.2,2.9,0.2,4.5,0c0.5-0.1,1-0.1,1.4-0.2V448c0-0.3,0.3-0.6,0.6-0.6h6c0.9,0,1.5-0.2,2.1-0.8c0.5-0.5,0.8-1.4,0.8-2.6
			c0-0.7-0.1-1.4-0.3-2c-0.2-0.5-0.3-0.9-0.5-1.2h-23.3c-0.9,0-1.5,0.2-2.1,0.8c-0.5,0.5-0.8,1.4-0.8,2.6c0,0.7,0.1,1.4,0.3,2
			C532.3,446.7,532.5,447.1,532.6,447.4z"/>
	</g>
</g>
</svg>
