<?xml version="1.0" encoding="utf-8"?>
<!-- Generator: Adobe Illustrator 22.1.0, SVG Export Plug-In . SVG Version: 6.00 Build 0)  -->
<svg version="1.1" id="Laag_1" xmlns="http://www.w3.org/2000/svg" xmlns:xlink="http://www.w3.org/1999/xlink" x="0px" y="0px"
	 viewBox="0 0 841.9 595.3" style="enable-background:new 0 0 841.9 595.3;" xml:space="preserve">
<style type="text/css">
	.st0{fill:none;stroke:#000000;stroke-width:11.5642;stroke-miterlimit:10;}
</style>
<g>
	<g>
		<path class="st0" d="M407.3,431.7"/>
		<path class="st0" d="M389.8,159.9c23.2,50.7,29.1,98.6,30.7,119.9c0.6,8.4-2.7,16.8-9.1,22.2c-12.1,10.2-26.8,13.8-36.5,15
			c-6.3,0.8-12.6-0.5-18.1-3.8c-38-22.5-60.5-52.7-72-72c-6.7-11.3-7.3-25.1-1.8-37c12.1-26.1,26.8-45.7,26.8-45.7
			c5.4-8.8,20.6-31.8,44.6-40.8c63.2-22.8,115.5-13.7,115.5-13.7c14.6,2,27.8,7.9,37.7,13.7c9.8,5.7,18.4,13.2,26.1,21.6
			c9.9,10.8,27.6,23.8,83,13.6c9.3-1.7,18.4,4.2,20.7,13.4C660,256.8,539.9,283,539.9,283c-84,18-112.1,118-112.1,118
			C292.8,391,216.1,283,216.1,283c-8.4,7.6-14.3,29.5-14.3,29.5c64.3,113.5,205.6,119.1,205.6,119.1"/>
		<path class="st0" d="M599.7,155.6c9.6,22.6,18.8,30.8,40.5,25.8"/>
		
			<ellipse transform="matrix(0.1836 -0.983 0.983 0.1836 -126.9519 771.3735)" class="st0" cx="400.9" cy="462.1" rx="31.1" ry="21.3"/>
	</g>
</g>
</svg>
